 <svg
        className="inset-0 w-full h-full"
        xmlns="http://www.w3.org/2000/svg"
        viewBox="0 0 1440 320"
      >
        <path
          fill="#062d71"
          fillOpacity="1"
          d="M0,32L48,69.3C96,107,192,181,288,197.3C384,213,480,171,576,133.3C672,96,768,64,864,80C960,96,1056,160,1152,192C1248,224,1344,224,1392,224L1440,224L1440,320L1392,320C1344,320,1248,320,1152,320C1056,320,960,320,864,320C768,320,672,320,576,320C480,320,384,320,288,320C192,320,96,320,48,320L0,320Z"
        ></path>
      </svg>